<?xml version="1.0"?><svg xmlns="http://www.w3.org/2000/svg"  viewBox="0 0 50 50" width="50px" height="50px">    <path d="M 25 0 C 26.522 3.563 27.729375 7.2062969 28.609375 10.904297 C 28.841375 11.826297 28.999078 12.761547 29.205078 13.685547 C 29.349078 14.620547 29.541906 15.548281 29.628906 16.488281 C 29.901906 18.356281 29.984047 20.241234 29.998047 22.115234 C 30.002047 25.841234 29.273906 29.550844 27.753906 32.964844 C 26.224678 36.352273 23.974779 39.484324 21.027344 41.976562 C 14.354449 41.725113 9 36.23335 9 29.5 C 9 22.607 14.607 17 21.5 17 C 22.561 17 23.650234 17.148406 24.740234 17.441406 C 25.042234 17.523406 25.362375 17.456578 25.609375 17.267578 C 25.855375 17.078578 26 16.785609 26 16.474609 L 26 12.351562 C 26 11.875562 25.665219 11.466094 25.199219 11.371094 C 23.984219 11.125094 22.74 11 21.5 11 C 11.299 11 3 19.299 3 29.5 C 3 39.701 11.299 48 21.5 48 C 31.701 48 40 39.701 40 29.5 C 40 27.941 39.784375 26.340188 39.359375 24.742188 C 39.243375 24.304187 38.848531 24 38.394531 24 L 34.214844 24 C 33.890844 24 33.586438 24.157828 33.398438 24.423828 C 33.211438 24.688828 33.163484 25.026984 33.271484 25.333984 C 33.754484 26.695984 34 28.099 34 29.5 C 34 36.393 28.393 42 21.5 42 C 21.344298 42 21.193402 41.982234 21.039062 41.976562 C 24.470598 40.156199 27.256826 37.131715 29.148438 33.654297 C 30.123437 31.910297 30.796016 30.006359 31.291016 28.068359 C 31.751016 26.118359 31.966094 24.117047 31.996094 22.123047 C 31.978255 20.309025 31.833381 18.501096 31.570312 16.714844 C 31.589891 16.712037 31.609421 16.718814 31.628906 16.714844 C 31.759906 16.686844 34.435609 16.112219 38.974609 13.449219 C 38.139609 14.891219 36.669187 16.642063 34.117188 17.914062 C 33.812187 18.065063 33.606313 18.364125 33.570312 18.703125 C 33.533312 19.042125 33.6715 19.375844 33.9375 19.589844 C 34.0115 19.647844 35.732656 21.001953 38.847656 21.001953 C 38.902656 21.001953 38.958625 21.001 39.015625 21 C 42.735625 20.942 46.672047 17.160875 46.998047 10.046875 C 47.234047 4.889875 45.925141 1.7247969 45.869141 1.5917969 C 45.740141 1.2867969 45.467578 1.0679063 45.142578 1.0039062 C 44.817578 0.93590625 44.481141 1.0394844 44.244141 1.2714844 C 44.229141 1.2864844 42.686359 2.7764219 39.193359 4.1074219 C 38.582359 4.3404219 37.998266 4.5538594 37.447266 4.7558594 C 34.421266 5.8648594 32.236578 6.667375 31.142578 8.484375 C 30.681676 9.2500923 30.446165 10.200208 30.320312 11.160156 C 30.251008 10.93493 30.185019 10.708088 30.111328 10.484375 C 28.918328 6.753375 27.255 3.168 25 0 z M 44.425781 3.6621094 C 44.749781 4.9431094 45.131953 7.120125 45.001953 9.953125 C 44.702953 16.479125 41.152375 18.967 38.984375 19 C 38.066375 19.026 37.296078 18.885797 36.705078 18.716797 C 41.214078 15.664797 41.954328 11.358203 41.986328 11.158203 C 42.049328 10.765203 41.873063 10.373203 41.539062 10.158203 C 41.205062 9.9442031 40.776313 9.9489219 40.445312 10.169922 C 36.553313 12.763922 33.705484 13.946406 32.271484 14.441406 C 32.138484 12.946406 32.129469 10.720625 32.855469 9.515625 C 33.586469 8.301625 35.495719 7.6028125 38.136719 6.6328125 C 38.695719 6.4278125 39.285297 6.2106094 39.904297 5.9746094 C 42.015297 5.1696094 43.495781 4.3041094 44.425781 3.6621094 z M 21.5 13 C 22.335 13 23.173 13.062453 24 13.189453 L 24 15.226562 C 23.161 15.075563 22.324 15 21.5 15 C 13.505 15 7 21.505 7 29.5 C 7 37.495 13.505 44 21.5 44 C 29.495 44 36 37.495 36 29.5 C 36 28.326 35.8535 27.153 35.5625 26 L 37.607422 26 C 37.868422 27.181 38 28.354 38 29.5 C 38 38.598 30.598 46 21.5 46 C 12.402 46 5 38.598 5 29.5 C 5 20.402 12.402 13 21.5 13 z"/></svg>